<svg id="Logo_Black" data-name="Logo Black" xmlns="http://www.w3.org/2000/svg" viewBox="0 0 144.94 81.66"><defs><style>.cls-1{fill:none;stroke:#000;stroke-miterlimit:10;stroke-width:1.5px;}</style></defs><path d="M12.51,47.45a1.15,1.15,0,0,1-.34-.82V15.38a1.2,1.2,0,0,1,.32-.86,1.08,1.08,0,0,1,.84-.34H27.25q5.61,0,8.37,2.48a8.57,8.57,0,0,1,2.76,6.74,7.34,7.34,0,0,1-4.08,6.77,8.07,8.07,0,0,1,3.39,3,8.36,8.36,0,0,1,1.36,4.71,9.3,9.3,0,0,1-3,7.2c-2,1.82-4.8,2.73-8.42,2.73H13.33A1.11,1.11,0,0,1,12.51,47.45ZM26.38,28a5.39,5.39,0,0,0,3.79-1.2,4.15,4.15,0,0,0,1.3-3.22,4,4,0,0,0-1.3-3.19,5.62,5.62,0,0,0-3.79-1.13H18.85V28Zm.48,14.74a5.33,5.33,0,0,0,3.89-1.37,4.66,4.66,0,0,0,1.39-3.48,4.72,4.72,0,0,0-1.39-3.53A5.33,5.33,0,0,0,26.86,33h-8V42.7Z"/><path d="M48.48,45.48q-3-2.77-3-8.43V20.64a1.05,1.05,0,0,1,.26-.73.91.91,0,0,1,.71-.28H50.1a.9.9,0,0,1,.7.28,1,1,0,0,1,.26.73V37.05a6.83,6.83,0,0,0,1.54,4.86A5.67,5.67,0,0,0,57,43.55a5.62,5.62,0,0,0,4.34-1.64,6.92,6.92,0,0,0,1.51-4.86V20.64a1,1,0,0,1,.28-.73,1,1,0,0,1,.73-.28h3.63a.92.92,0,0,1,.71.28,1.05,1.05,0,0,1,.26.73V37.05q0,5.66-3,8.43c-2,1.86-4.82,2.78-8.45,2.78S50.5,47.34,48.48,45.48Z"/><path d="M81.68,47.06A10.77,10.77,0,0,1,77,43.46a9.89,9.89,0,0,1-1.87-5.8,1.08,1.08,0,0,1,.28-.75,1,1,0,0,1,.72-.31h4.56a1.47,1.47,0,0,1,1.44,1.25,5.17,5.17,0,0,0,2,3.69,7,7,0,0,0,4.24,1.2,5.66,5.66,0,0,0,4.64-2,8.46,8.46,0,0,0,1.6-5.48V19.85H78.29a1.16,1.16,0,0,1-1.15-1.15V15.34a1.05,1.05,0,0,1,.34-.84,1.13,1.13,0,0,1,.81-.32h21.94a1.18,1.18,0,0,1,.86.34,1.14,1.14,0,0,1,.34.86V35.5a13.79,13.79,0,0,1-1.63,6.86,10.81,10.81,0,0,1-4.64,4.39,15.27,15.27,0,0,1-7,1.51A17.06,17.06,0,0,1,81.68,47.06Z"/><path d="M107.25,41.38q-1.8-3.72.12-8.87c.27-.73.69-1.8,1.25-3.19s1-2.49,1.35-3.2q2.16-4.9,6.16-6.38a12.07,12.07,0,0,1,8.92.54,12.14,12.14,0,0,1,6.79,5.85q1.86,3.84,0,8.87c-.54,1.47-1,2.55-1.23,3.25s-.73,1.72-1.37,3.14q-2.25,5-6.14,6.43t-9-.64Q109,45.11,107.25,41.38ZM120.48,43A7.22,7.22,0,0,0,124,39c.66-1.47,1.09-2.47,1.31-3s.61-1.59,1.15-3.06a7.19,7.19,0,0,0,.27-5.27,6.45,6.45,0,0,0-8-3.23,7.16,7.16,0,0,0-3.48,4c-.32.71-.74,1.72-1.27,3s-.91,2.29-1.19,3a7.28,7.28,0,0,0-.29,5.26,5.72,5.72,0,0,0,3.37,3.13A5.8,5.8,0,0,0,120.48,43Z"/><path d="M29.74,66.41a4.1,4.1,0,0,1-1.22-3c0-.29,0-.75,0-1.39s0-1.1,0-1.39a3.93,3.93,0,0,1,1.24-2.91,4.51,4.51,0,0,1,3.18-1.06,5.53,5.53,0,0,1,2.37.47,3.71,3.71,0,0,1,1.49,1.16,2.5,2.5,0,0,1,.54,1.37v0a.27.27,0,0,1-.09.2A.33.33,0,0,1,37,60H35.49a.46.46,0,0,1-.23,0,.48.48,0,0,1-.13-.19,2.11,2.11,0,0,0-.74-.95,2.38,2.38,0,0,0-1.45-.4A2.26,2.26,0,0,0,31.3,59a2.5,2.5,0,0,0-.64,1.75c0,.29,0,.73,0,1.32s0,1,0,1.32c.06,1.59.83,2.38,2.31,2.38a2.45,2.45,0,0,0,1.71-.58,2.16,2.16,0,0,0,.64-1.71V63H33.49a.34.34,0,0,1-.26-.1.41.41,0,0,1-.1-.27v-.79a.41.41,0,0,1,.1-.27.35.35,0,0,1,.26-.11h3.58a.33.33,0,0,1,.26.11.36.36,0,0,1,.1.27V63.4a4.17,4.17,0,0,1-.54,2.16A3.61,3.61,0,0,1,35.32,67a5.38,5.38,0,0,1-2.38.49A4.53,4.53,0,0,1,29.74,66.41Z"/><path d="M49.77,66.44a4,4,0,0,1-1.13-3.13V57.22a.41.41,0,0,1,.1-.27.35.35,0,0,1,.26-.11h1.37a.35.35,0,0,1,.26.11.41.41,0,0,1,.1.27v6.09a2.57,2.57,0,0,0,.56,1.8,2.1,2.1,0,0,0,1.62.61,2.06,2.06,0,0,0,1.61-.61,2.52,2.52,0,0,0,.56-1.8V57.22a.38.38,0,0,1,.38-.38h1.35a.36.36,0,0,1,.26.11.4.4,0,0,1,.09.27v6.09a4.08,4.08,0,0,1-1.11,3.13,4.44,4.44,0,0,1-3.14,1A4.45,4.45,0,0,1,49.77,66.44Z"/><path d="M71.88,67.22a.35.35,0,0,1-.1-.26V57.2a.33.33,0,0,1,.1-.26.35.35,0,0,1,.26-.1h1.4a.36.36,0,0,1,.27.1.36.36,0,0,1,.09.26V67a.39.39,0,0,1-.09.26.36.36,0,0,1-.27.1h-1.4A.35.35,0,0,1,71.88,67.22Z"/><path d="M88.61,67.22a.35.35,0,0,1-.1-.26V57.22A.4.4,0,0,1,88.6,57a.37.37,0,0,1,.27-.11h3.65q4.4,0,4.49,4.07,0,.87,0,1.17c0,.19,0,.58,0,1.15a4.25,4.25,0,0,1-1.12,3.1,4.72,4.72,0,0,1-3.3,1H88.87A.35.35,0,0,1,88.61,67.22Zm3.91-1.62A2.48,2.48,0,0,0,94.33,65a2.67,2.67,0,0,0,.59-1.85c0-.6,0-1,0-1.12s0-.53,0-1.11a2.16,2.16,0,0,0-2.48-2.4H90.59v7Z"/><path d="M109.09,67.22A.35.35,0,0,1,109,67V57.22a.36.36,0,0,1,.1-.27.33.33,0,0,1,.26-.11h6.59a.37.37,0,0,1,.27.11.41.41,0,0,1,.1.27v1a.41.41,0,0,1-.1.27.4.4,0,0,1-.27.09H111v2.65h4.6a.41.41,0,0,1,.27.1.34.34,0,0,1,.1.26v.93a.33.33,0,0,1-.1.26.36.36,0,0,1-.27.1H111V65.6h5a.36.36,0,0,1,.26.1.37.37,0,0,1,.11.27v1a.33.33,0,0,1-.11.26.33.33,0,0,1-.26.1h-6.71A.35.35,0,0,1,109.09,67.22Z"/><rect class="cls-1" x="0.75" y="0.75" width="143.44" height="80.16"/></svg>